<?xml version="1.0" encoding="utf-8"?>
<!-- Generator: Adobe Illustrator 18.1.1, SVG Export Plug-In . SVG Version: 6.00 Build 0)  -->
<svg version="1.1" id="Capa_1" xmlns="http://www.w3.org/2000/svg" xmlns:xlink="http://www.w3.org/1999/xlink" x="0px" y="0px"
	 viewBox="0 0 100 100" enable-background="new 0 0 100 100" xml:space="preserve">
<g>
	<g>
		<defs>
			<rect id="SVGID_3_" x="3" y="1" width="94.1" height="98"/>
		</defs>
		<clipPath id="SVGID_2_">
			<use xlink:href="#SVGID_3_"  overflow="visible"/>
		</clipPath>
		<path clip-path="url(#SVGID_2_)" fill="#212121" d="M93,74.7l-24.8-8.3c-0.6-0.2-1.1-0.3-1.7-0.3H45.8L12.2,33.4
			c-2.1-2.1-5.6-2.1-7.7,0.1c-2.1,2.2-2.1,5.6,0.1,7.7l35.1,34.3c1,1,2.4,1.5,3.8,1.5H46v13.6h-7.2c-0.3,0-0.5,0.2-0.5,0.5v6
			c0,0.3,0.2,0.5,0.5,0.5h32.5c0.2,0,0.5-0.2,0.5-0.5v-6c0-0.3-0.2-0.5-0.5-0.5h-8.5V77h2.8l24,8.1c0.6,0.2,1.1,0.3,1.7,0.3
			c2.3,0,4.4-1.4,5.2-3.7C97.4,78.8,95.9,75.7,93,74.7L93,74.7z M93,74.7"/>
	</g>
	<path fill="#212121" d="M43.5,18.4c0.1,0,0.2,0.1,0.2,0.1c0.1,0,0.1,0,0.2,0c0.1-0.1,0.2-0.2,0.3-0.3c0-0.1,1.1-4.3-1.4-7.3
		l3.4-6.2h18.4v41.3c0,1,0.8,1.8,1.8,1.8c1,0,1.8-0.8,1.8-1.8v-3h27.9c0.3,0,0.5-0.2,0.5-0.4v-7.6c0-0.2-0.2-0.5-0.5-0.5h-4v-1.9
		c0-0.2-0.2-0.4-0.5-0.4h-1.8c-0.3,0-0.5,0.2-0.5,0.4v1.9h-1.6v-1.9c0-0.2-0.2-0.4-0.4-0.4h-1.9c-0.2,0-0.5,0.2-0.5,0.4v1.9h-1.5
		v-1.9c0-0.2-0.2-0.4-0.5-0.4h-1.9c-0.2,0-0.4,0.2-0.4,0.4v1.9h-2v-1.9c0-0.2-0.2-0.4-0.5-0.4h-1.9c-0.2,0-0.4,0.2-0.4,0.4v1.9h-1.5
		v-1.9c0-0.2-0.2-0.4-0.5-0.4h-1.9c-0.2,0-0.5,0.2-0.5,0.4v1.9h-3.6V2.8c0-1-0.8-1.8-1.8-1.8H45.1c-0.7,0-1.3,0.4-1.6,0.9l-3.7,6.7
		c-1.2-0.5-2.4-0.8-3.6-0.8c-3.1,0-5.3,1.5-5.4,1.6c-0.1,0.1-0.2,0.2-0.2,0.4c0,0.1,0.1,0.3,0.2,0.4L43.5,18.4z M43.5,18.4"/>
	<path fill="#44AC70" d="M26.4,39.1c5.2,0,9.4-4.2,9.4-9.4c0-5.2-4.2-9.4-9.4-9.4S17,24.6,17,29.7C17,34.9,21.2,39.1,26.4,39.1
		L26.4,39.1z M26.4,39.1"/>
	<path fill="#44AC70" d="M92.7,60l-20-7.6c-0.6-0.2-1.3-0.4-1.9-0.4H52.2l-13-12.6c-2.2-2.1-5.6-2-7.7,0.1c-2.1,2.2-2,5.6,0.1,7.7
		l14.6,14.1c1,1,2.4,1.5,3.8,1.5h19.8l19.1,7.3c0.6,0.3,1.3,0.4,1.9,0.4c2.2,0,4.3-1.3,5.1-3.5C97,64.3,95.5,61.1,92.7,60L92.7,60z
		 M92.7,60"/>
</g>
</svg>
