<?xml version="1.0" encoding="utf-8"?>
<!-- Generator: Adobe Illustrator 18.1.1, SVG Export Plug-In . SVG Version: 6.00 Build 0)  -->
<svg version="1.1" id="Capa_1" xmlns="http://www.w3.org/2000/svg" xmlns:xlink="http://www.w3.org/1999/xlink" x="0px" y="0px"
	 viewBox="0 0 100 100" enable-background="new 0 0 100 100" xml:space="preserve">
<g>
	<path fill="#222222" d="M92.3,11.2c-5.2-5.8-12.3-9-20.1-9c-6.1,0-12.6,3.6-17.4,6.3c-1.7,1-4.1,2.3-4.8,2.4
		c-0.7-0.1-3.1-1.4-4.8-2.4c-4.8-2.6-11.3-6.3-17.4-6.3c-7.8,0-14.9,3.2-20.1,9C2.7,16.7,0,24,0,31.7c0,11,3.9,26.6,10.5,41.7
		c2.9,6.7,6.1,12.6,9,16.9c3.5,5.1,6.6,7.6,9.3,7.6c1.2,0,3.4-0.5,4.6-3.9c1.2-3.3,2.3-7.1,3.4-11.2c3-10.7,6.8-24,12.9-24h0.4
		c2.7,0,5.1,2.3,7.4,7.1c2.3,4.7,4,11,5.6,17.1c1.1,4,2.1,7.8,3.3,11.1c1.2,3.4,3.4,3.9,4.6,3.9c2.7,0,5.7-2.5,9.3-7.7
		c3-4.3,6.1-10.2,9.1-17C96,57.8,100,42.3,100,31.7C100,24,97.3,16.7,92.3,11.2 M70.4,19.1c-0.1,0-6.3-0.3-12.1-1.8
		c-2.6-0.7-5.6-2.1-5.6-2.5c0-0.4,3.3-2.3,4.1-2.8c4.4-2.4,10.4-5.7,15.4-5.7c14.8,0,23.7,12.9,23.7,25.4c0,10-3.9,25.2-10.3,39.8
		c-2.8,6.5-5.9,12.3-8.7,16.3c-3.2,4.7-5.3,6-5.9,5.9c-0.4-0.1-0.4-0.3-0.7-1.2c-1.1-3.1-2.1-6.8-3.2-10.8
		C65.4,75.5,63.7,69,61.3,64c-3-6.3-6.6-9.4-11.1-9.4h-0.4c-4.3,0-7.8,3-10.8,9.3c-2.4,5-4.2,11.4-6,17.7c-1.1,4-2.2,7.7-3.3,10.9
		c-0.3,0.7-0.3,1.2-0.8,1.2c-0.4,0.1-1.9-0.1-5.9-5.8c-2.8-4-5.9-9.7-8.6-16.2C8,57.3,4.1,41.9,4.1,31.7c0-12.5,8.9-25.4,23.7-25.4
		c3.9,0,8.9,1.8,13.5,4.7c0.7,0.4,1.6,1.2,2.6,1.9c0.4,0.3,0.7,0.6,1.1,0.8c1.1,0.8,2.5,1.9,4.3,2.9c0.7,0.4,1.6,1,2.6,1.4
		c3.7,1.6,7.6,2.4,11.7,2.4c4.1,0,6.9-0.7,6.9-0.7c0,0,0.6-0.2,0.6-0.3C71,19.1,70.4,19.1,70.4,19.1L70.4,19.1z M70.4,19.1"/>
</g>
</svg>
