<?xml version="1.0" encoding="utf-8"?>
<!-- Generator: Adobe Illustrator 18.1.1, SVG Export Plug-In . SVG Version: 6.00 Build 0)  -->
<svg version="1.1" id="Capa_1" xmlns="http://www.w3.org/2000/svg" xmlns:xlink="http://www.w3.org/1999/xlink" x="0px" y="0px"
	 viewBox="0 0 100 100" enable-background="new 0 0 100 100" xml:space="preserve">
<g>
	<path fill="#222222" d="M40.9,66.8c0,0-18,1.6-26.2-10.9S8.7,2.8,39.2,1.2s43.3,10.1,46.3,24c3,13.9,3.8,19.4,3.8,19.4
		s-5.7,3-5.5,9.5s5.5,8.4,5.5,8.4V72c0,0-16.1-1.4-21.3-5.5c0,0,8.4-9.8,3-22.1s-22.6-13.1-30-4.1S35.7,57.8,40.9,66.8z"/>
	<g>
		<path fill="#222222" d="M48.8,70.9c0,0,9.9,2.7,15.5-2.2c0,0-1.4,7.9,3.3,8.7S88,79.1,88,79.1S85.6,96,86.4,99
			c0,0-22.9-7.9-28.1-9s-9.5-1.6-9.5-6.1S48.8,70.9,48.8,70.9z"/>
	</g>
	<circle fill="#41B070" cx="54.8" cy="53.5" r="11.7"/>
</g>
</svg>
