<?xml version="1.0" encoding="utf-8"?>
<!-- Generator: Adobe Illustrator 18.1.1, SVG Export Plug-In . SVG Version: 6.00 Build 0)  -->
<svg version="1.1" id="Capa_1" xmlns="http://www.w3.org/2000/svg" xmlns:xlink="http://www.w3.org/1999/xlink" x="0px" y="0px"
	 viewBox="0 0 143.7 100" enable-background="new 0 0 143.7 100" xml:space="preserve">
<g>
	<g>
		<path fill="none" d="M30.3,50.7c-0.1-0.3-0.2-0.5-0.2-0.8C30.1,50.1,30.2,50.4,30.3,50.7C30.3,50.7,30.3,50.7,30.3,50.7z"/>
		<path d="M29.9,49.5L29.9,49.5c0,0.1,0.1,0.3,0.1,0.4C29.9,49.7,29.9,49.5,29.9,49.5z"/>
	</g>
	<g>
		<path fill="none" d="M69.3,54.6H63c0,0-0.6,0-0.6,0.5v1.4c0,1.4-1.1,2.5-2.5,2.5H48.3c-1.4,0-2.5-1.1-2.5-2.5v-7.1
			c0-1.4,1.1-2.5,2.5-2.5h11.5c1.4,0,2.5,1.1,2.5,2.5v1c0,0.6,0.5,0.7,0.5,0.7h5.7c0.2,0,0.3-0.1,0.3-0.2c-0.1-0.4-0.2-0.8-0.2-0.9
			c0,0,0-0.1,0-0.1c-0.9-3-2.2-5.9-4-8.5c-3.4-5.1-7.6-8-11.7-8c-4.1,0-8.4,2.9-11.7,8c-3.2,4.9-5.2,11-5.2,16.4
			c0,8.3,4.4,9.2,14.4,9.2c0.4,0,0.8,0,1.2,0c0.4,0,0.9,0,1.3,0c0.4,0,0.9,0,1.3,0c0.4,0,0.8,0,1.2,0c10,0,14.4-0.9,14.4-9.2
			c0-0.5,0-0.9,0-1.4c0-0.4-0.1-0.8-0.1-1.2C69.7,54.8,69.7,54.6,69.3,54.6z"/>
		<path fill="none" d="M68.8,50.4c-0.1-0.2-0.1-0.4-0.2-0.6c0,0.2,0.1,0.5,0.2,0.9C68.9,50.7,68.9,50.5,68.8,50.4z"/>
		<path fill="none" d="M73.6,54.8c0,0.2,0,0.4-0.1,0.6c0-0.2,0.1-0.5,0.1-0.7C73.6,54.8,73.6,54.8,73.6,54.8z"/>
		<path fill="none" d="M74.4,50.6c0,0.1,0,0.1,0,0.2c0.2-0.9,0.4-1.4,0.4-1.4C74.6,49.8,74.5,50.2,74.4,50.6z"/>
		<path d="M68.6,49.7L68.6,49.7c0,0,0,0.1,0,0.1C68.7,49.8,68.6,49.7,68.6,49.7z"/>
		<path d="M73.5,56.9L73.5,56.9c0-0.5,0-1,0.1-1.5C73.5,56,73.5,56.5,73.5,56.9z"/>
	</g>
	<g>
		<path fill="none" d="M112.8,50.7c0,0,0,0.1,0,0.2c0.1-0.3,0.1-0.5,0.1-0.5C112.9,50.4,112.9,50.6,112.8,50.7z"/>
		<path fill="#222222" d="M136.2,42.1c-3.2-4.9-7.4-7.5-11.7-7.5c-4.3,0-8.4,2.7-11.7,7.5c-0.9,1.3-2.5,5.3-3.3,6.7
			c-1-3.4-2.5-6.7-4.5-9.7c-4.1-6.2-9.3-9.6-14.7-9.6c-5.4,0-10.6,3.4-14.7,9.6c-1.7,2.5-3.6,8.1-4,8.1c-0.4,0-2.3-5.7-4-8.1
			c-4.1-6.2-9.3-9.6-14.7-9.6c-5.4,0-10.6,3.4-14.7,9.6c-2,3-3.5,6.5-4.5,10c-0.8-1.3-2.5-5.7-3.5-7c-3.2-4.9-7.4-7.5-11.7-7.5
			c-4.3,0-8.4,2.7-11.7,7.5c-2.8,4.3-4.5,9.6-4.5,14.3c0,4.5,1.5,7.4,4.6,8.9c2.8,1.4,6.4,1.4,10.6,1.4c0.7,0,1.3,0,2,0
			c4.1,0,7.8,0,10.6-1.4c0.8-0.4,2.1-1.8,3-2.6c0.9,2.7,2.5,4.7,5,5.9c3.5,1.7,8.2,1.7,13.6,1.7c0.9,0,1.7,0,2.6,0
			c0.4,0,0.8,0,1.2,0c4.8,0,9.1-0.1,12.3-1.7c1.7-0.8,3.3-3.4,3.9-3.4c0.5,0,2.2,2.6,3.9,3.4c3.5,1.7,8.2,1.7,13.6,1.7
			c0.9,0,1.7,0,2.6,0c0.4,0,0.8,0,1.2,0c4.8,0,9.1-0.1,12.3-1.7c2.5-1.2,4.1-3.1,4.9-5.8c0.9,0.9,2,2.2,2.8,2.5
			c2.8,1.4,6.4,1.4,10.6,1.4c0.7,0,1.3,0,2,0c4.1,0,7.8,0,10.6-1.4c3.1-1.5,4.6-4.4,4.6-8.9C140.7,51.7,139,46.4,136.2,42.1z
			 M20.5,63.1c-0.3,0-0.6,0-1,0c-0.7,0-1.3,0-2,0c-0.3,0-0.6,0-1,0C9.1,63.1,6,62.5,6,56.5c0-8.1,5.9-18.3,12.6-18.3
			c4.8,0,9.2,5.3,11.3,11.3l0,0c0,0,0.1,0.2,0.1,0.4c0.1,0.3,0.2,0.5,0.2,0.8c0,0,0,0,0,0c0.4,1.3,0.9,3.3,0.8,4.8l0,0
			c0,0.3,0,0.6,0,0.9C31.1,62.5,28.1,63.1,20.5,63.1z M69.9,57.6c0,8.3-4.4,9.2-14.4,9.2c-0.4,0-0.8,0-1.2,0c-0.4,0-0.9,0-1.3,0
			c-0.4,0-0.9,0-1.3,0c-0.4,0-0.8,0-1.2,0c-10,0-14.4-0.9-14.4-9.2c0-5.4,1.9-11.5,5.2-16.4c3.4-5.1,7.6-8,11.7-8
			c4.1,0,8.4,2.9,11.7,8c1.7,2.6,3.1,5.5,4,8.5l0,0c0,0,0,0,0,0.1c0.1,0.2,0.1,0.4,0.2,0.6c0,0.1,0.1,0.3,0.1,0.4
			c0.4,1.5,1,4.3,1,5.4l0,0C69.8,56.6,69.9,57.1,69.9,57.6z M92.9,66.8c-0.4,0-0.8,0-1.2,0c-0.4,0-0.9,0-1.3,0c-0.4,0-0.9,0-1.3,0
			c-0.4,0-0.8,0-1.2,0c-10,0-14.4-0.9-14.4-9.2c0-0.2,0-0.4,0-0.7c0-0.4,0-0.9,0.1-1.5c0-0.2,0-0.4,0.1-0.6c0,0,0-0.1,0-0.1
			c0.2-1.3,0.5-2.8,0.8-3.9c0-0.1,0-0.2,0-0.2c0.1-0.4,0.2-0.8,0.4-1.2c0.9-2.9,2.2-5.7,3.9-8.2c3.4-5.1,7.6-8,11.7-8
			c4.1,0,8.4,2.9,11.7,8c3.2,4.9,5.2,11,5.2,16.4C107.3,65.9,102.9,66.8,92.9,66.8z M126.5,63.1c-0.3,0-0.6,0-1,0c-0.7,0-1.3,0-2,0
			c-0.3,0-0.6,0-1,0c-7.5,0-10.6-0.6-10.6-6.6c0-0.2,0-0.5,0-0.7l0,0c0-1.3,0.6-3.8,0.8-4.9c0-0.1,0-0.1,0-0.2
			c0-0.1,0.1-0.2,0.1-0.4c0,0,0,0,0,0l0,0c2-6.3,6.5-12.1,11.6-12.1c6.6,0,12.5,10.2,12.5,18.3C137.1,62.5,134,63.1,126.5,63.1z"/>
		<path d="M113,50.3C113,50.3,113,50.3,113,50.3C113,50.3,113,50.3,113,50.3L113,50.3z"/>
	</g>
	<path fill="#41B070" d="M128.1,47.7h-8.9c-1.3,0-2.3,1-2.3,2.3v0.5c0,0.4-0.5,0.4-0.5,0.4H115h-2c-0.2,0-0.2-0.1-0.2-0.2
		c0,0,0,0.1,0,0.2H97.5v-1.7c0-1.4-1.1-2.5-2.5-2.5H83.4c-1.4,0-2.5,1.1-2.5,2.5v1.1c0,0.5-0.4,0.5-0.5,0.5h-5.8
		c-0.1,0-0.2-0.1-0.2-0.1c0,0,0,0.1,0,0.1h-5.4c0-0.1,0-0.1,0-0.2c0,0.1-0.1,0.2-0.3,0.2h-5.8c-0.1,0-0.4-0.1-0.4-0.7v-1
		c0-1.4-1.1-2.5-2.5-2.5H48.3c-1.4,0-2.5,1.1-2.5,2.5V51H30.3c0-0.1,0-0.2-0.1-0.2c0,0.1,0,0.2-0.2,0.2h-3.4h-0.2
		c-0.1,0-0.3-0.1-0.3-0.4V50c0-1.3-1-2.3-2.3-2.3H15c-1.3,0-2.3,1-2.3,2.3v5.5c0,1.3,1,2.3,2.3,2.3h8.9c1.3,0,2.3-1,2.3-2.3v-0.4
		c0-0.2,0.1-0.3,0.2-0.4H31c0.1,0.1,0.1,0.2,0.1,0.3c0,0.2,0,0.4,0,0.6l0,0c0-0.3,0-0.6,0-0.9h14.7v1.7c0,1.4,1.1,2.5,2.5,2.5h11.5
		c1.4,0,2.5-1.1,2.5-2.5v-1.4c0-0.2,0.1-0.3,0.2-0.4h7.1c0.1,0.1,0.1,0.1,0.1,0.2c0,0.4,0.1,0.8,0.1,1.2l0,0c0-0.3-0.1-0.8-0.2-1.4
		h10.9c0.1,0.1,0.3,0.2,0.3,0.5v1.3c0,1.4,1.1,2.5,2.5,2.5H95c1.4,0,2.5-1.1,2.5-2.5v-1.7H112c0,0.4-0.1,0.7-0.1,1l0,0
		c0-0.2,0-0.4,0-0.6c0-0.1,0-0.3,0.1-0.4h2.9v0h1.3c0,0,0.6,0,0.6,0.5v0.3c0,1.3,1,2.3,2.3,2.3h8.9c1.3,0,2.3-1,2.3-2.3V50
		C130.4,48.8,129.3,47.7,128.1,47.7z"/>
</g>
</svg>
