<?xml version="1.0" encoding="utf-8"?>
<!-- Generator: Adobe Illustrator 18.1.1, SVG Export Plug-In . SVG Version: 6.00 Build 0)  -->
<svg version="1.1" id="Capa_1" xmlns="http://www.w3.org/2000/svg" xmlns:xlink="http://www.w3.org/1999/xlink" x="0px" y="0px"
	 viewBox="0 0 100 100" enable-background="new 0 0 100 100" xml:space="preserve">
<g>
	<path fill="#41B070" d="M18.9,48.9h26.6v6.3H27.8c0.4,1.8,0.9,3.8,1.4,6h16.3v6.3H31c0.6,2.1,1.3,4.3,2.1,6.4h12.4v6.3h-10
		c1,2.3,2.1,4.5,3.2,6.5h6.8V93h-5.3c3.1,3.7,6.6,6,10.5,6c0,0,0.1,0,0.1,0c0,0,0.1,0,0.1,0c4,0,7.5-2.3,10.5-6h-5.3v-6.3H63
		c1.1-2,2.2-4.3,3.2-6.5h-10v-6.3h12.4c0.8-2.2,1.5-4.3,2.1-6.4H56.2v-6.3h16.3c0.5-2.2,1-4.2,1.4-6H56.2v-6.3h25.3c0,0,0-2.7,0-3.9
		H19C19,46.3,18.9,48.9,18.9,48.9z"/>
	<path fill="#222222" d="M80.5,7.6C76.7,3.3,71.5,1,65.8,1c-4.5,0-9.2,2.6-12.7,4.5C52.3,6,50.5,7,50,7.1C49.5,7,47.7,6,46.9,5.5
		C43.4,3.6,38.7,1,34.2,1c-5.7,0-10.9,2.3-14.7,6.6c-3.6,4-5.6,9.3-5.6,14.9c0,4.4,0.9,9.8,2.5,15.8l0.1,0.4h4.3L20.6,38
		c-1.7-6-2.6-11.3-2.6-15.5C18,14,24.1,5.1,34.2,5.1c2.6,0,6.1,1.2,9.3,3.2c0.5,0.3,1.1,0.8,1.8,1.3c0.3,0.2,0.5,0.4,0.8,0.6
		c0.8,0.6,1.8,1.4,3.1,2.1c0.5,0.3,1.2,0.7,1.9,1c2.7,1.1,5.6,1.7,8.5,1.7c2.8,0,4.7-0.5,5.1-0.5l0,0c0.8-0.2,0.9-0.6,0.9-0.9
		c0-0.2-0.2-0.7-1-0.7c-0.2,0-4.5-0.2-8.4-1.3c-1.3-0.3-2.5-0.9-3.2-1.2c0.6-0.4,1.6-1,2.3-1.4c3.1-1.7,7.3-4,10.7-4
		C75.9,5.1,82,14,82,22.5c0,4.1-0.9,9.4-2.7,15.5l-0.2,0.8h4.3l0.1-0.4c1.7-6,2.6-11.5,2.6-15.8C86.1,16.9,84.1,11.6,80.5,7.6z"/>
	<rect x="16.4" y="38.2" fill="#222222" width="67.3" height="3.7"/>
</g>
</svg>
