<?xml version="1.0" encoding="utf-8"?>
<!-- Generator: Adobe Illustrator 18.1.1, SVG Export Plug-In . SVG Version: 6.00 Build 0)  -->
<svg version="1.1" id="Capa_1" xmlns="http://www.w3.org/2000/svg" xmlns:xlink="http://www.w3.org/1999/xlink" x="0px" y="0px"
	 viewBox="0 0 122.4 100" enable-background="new 0 0 122.4 100" xml:space="preserve">
<g>
	<g>
		<path fill="#222222" d="M115.2,23.6c-4.4-4.9-10.4-7.6-16.9-7.6c-5.1,0-10.6,3-14.7,5.3c-1.5,0.8-3.5,1.9-4.1,2
			c-0.6-0.1-2.6-1.2-4.1-2c-4-2.2-9.5-5.3-14.7-5.3c-6.5,0-12.6,2.7-16.9,7.6c-4.2,4.7-6.4,10.8-6.4,17.2c0,9.2,3.3,22.4,8.9,35.1
			c2.5,5.7,5.1,10.6,7.6,14.2c3,4.3,5.5,6.4,7.8,6.4c1,0,2.9-0.4,3.9-3.3c1-2.8,1.9-6,2.9-9.4c2.6-9,5.7-20.2,10.8-20.2h0.3
			c2.3,0,4.3,1.9,6.2,6c1.9,4,3.3,9.3,4.7,14.4c0.9,3.4,1.8,6.6,2.8,9.3c1,2.9,2.9,3.3,3.9,3.3c2.3,0,4.8-2.1,7.8-6.5
			c2.5-3.6,5.1-8.6,7.6-14.3c5.6-12.9,8.9-25.9,8.9-34.9C121.7,34.4,119.4,28.3,115.2,23.6 M96.7,30.2c-0.1,0-5.3-0.3-10.2-1.5
			c-2.2-0.6-4.7-1.7-4.7-2.1c0-0.3,2.8-2,3.5-2.3c3.7-2,8.8-4.8,13-4.8c12.5,0,19.9,10.9,19.9,21.4c0,8.4-3.3,21.2-8.6,33.5
			c-2.4,5.5-5,10.3-7.3,13.8c-2.7,3.9-4.5,5.1-5,5c-0.3-0.1-0.4-0.3-0.6-1c-0.9-2.6-1.8-5.8-2.7-9.1c-1.4-5.3-2.9-10.7-4.9-14.9
			c-2.5-5.3-5.6-7.9-9.3-7.9h-0.3c-3.6,0-6.6,2.6-9.1,7.8c-2,4.2-3.6,9.6-5,14.9c-0.9,3.3-1.8,6.5-2.8,9.2c-0.2,0.6-0.3,1-0.7,1
			c-0.3,0-1.6-0.1-5-4.9c-2.3-3.4-4.9-8.2-7.3-13.6c-5.3-12.2-8.6-25.1-8.6-33.8c0-10.5,7.5-21.4,19.9-21.4c3.2,0,7.5,1.5,11.4,4
			c0.6,0.4,1.4,1,2.2,1.6c0.3,0.2,0.6,0.5,0.9,0.7c0.9,0.7,2.1,1.6,3.6,2.4c0.6,0.4,1.4,0.8,2.2,1.2c3.1,1.3,6.4,2,9.8,2
			c3.5,0,5.8-0.6,5.8-0.6c0,0,0.5-0.1,0.5-0.3C97.2,30.3,96.7,30.2,96.7,30.2L96.7,30.2z M96.7,30.2"/>
	</g>
	<g>
		<g>
			<path fill="#41B070" d="M8,2.8C7.5,2.5,7,2.5,6.5,2.7C6,2.8,5.7,3.2,5.4,3.6l-4.2,8.7c-0.2,0.5-0.3,1-0.1,1.4
				c0.2,0.5,0.5,0.9,1,1.1l20.6,10.1c0.5,0.2,1,0.3,1.4,0.1c0.5-0.2,0.9-0.5,1.1-1l0.6-1.3l4.5,2.2c1.8,0.9,2.5,0.1,2.8-0.1
				c2.6-2.2,8.7-8.3,11.8-6.7c3.6,1.8,17.5,22.8,18,23c1.8,0.9-8.4-22.7-17.2-27c-1.6-0.8-7,0.1-11.8,4.5c-0.3,0.3-0.5,0.2-0.7,0.1
				l-4.5-2.2l0.6-1.3c0.2-0.5,0.3-1,0.1-1.4c-0.2-0.5-0.5-0.9-1-1.1L8,2.8L8,2.8z M4.6,12.9"/>
		</g>
	</g>
</g>
</svg>
