<?xml version="1.0" encoding="utf-8"?>
<!-- Generator: Adobe Illustrator 18.1.1, SVG Export Plug-In . SVG Version: 6.00 Build 0)  -->
<svg version="1.1" id="Capa_1" xmlns="http://www.w3.org/2000/svg" xmlns:xlink="http://www.w3.org/1999/xlink" x="0px" y="0px"
	 viewBox="0 0 100 100" enable-background="new 0 0 100 100" xml:space="preserve">
<g>
	<g>
		<path fill="#222222" d="M98.4,46.3c-2.3-0.8-5.6-4.7-9.1-8.8C82.9,30,75.6,21.6,67.8,21.6c-10.3,0-15.9,5.6-17.9,8.1
			c-2.2-2.2-8.1-7.3-16.5-7.3c-6.6,0-14.6,8.5-21.7,16c-4.1,4.3-8,8.4-10,9C1.3,47.4,1,47.8,1,48.1c0,0.4,0.2,0.7,0.6,0.9
			c3.5,1.5,7,5.4,11.1,10c5.7,6.4,12.3,13.7,20.9,16.7c5.3,1.8,10.9,2.7,17.3,2.7c6.1,0,12-0.8,16.5-1.6c7.7-1.3,19.2-15,26-23.2
			c2.2-2.6,4.5-5.3,5-5.7c0.3-0.2,0.5-0.5,0.5-0.9C99,46.8,98.7,46.5,98.4,46.3L98.4,46.3z M87.8,49c-4.6,2.7-16,8.3-34.3,9
			c-18.9,0.8-32.9-5.2-38.8-8.4c4.1-0.8,7.5-2.6,10.6-4.1c3.5-1.8,6.6-3.3,9.7-3.3c3.9,0,7.8,1.1,10.9,2.1c2.5,0.7,4.5,1.3,5.9,1.2
			c1.3-0.1,3-0.5,5-1.1c3.1-0.8,6.8-1.8,10.5-1.8c2.6,0,6,1.4,9.6,2.9C80.5,46.9,84.1,48.5,87.8,49L87.8,49z M87.8,49"/>
	</g>
</g>
</svg>
