<?xml version="1.0" encoding="utf-8"?>
<!-- Generator: Adobe Illustrator 18.1.1, SVG Export Plug-In . SVG Version: 6.00 Build 0)  -->
<svg version="1.1" id="Capa_1" xmlns="http://www.w3.org/2000/svg" xmlns:xlink="http://www.w3.org/1999/xlink" x="0px" y="0px"
	 viewBox="0 0 100 100" enable-background="new 0 0 100 100" xml:space="preserve">
<g>
	<g>
		<path fill="#222222" d="M36.9,26c6.9,0,12.5-5.6,12.5-12.5C49.4,6.6,43.8,1,36.9,1C30,1,24.4,6.6,24.4,13.5
			C24.4,20.4,30,26,36.9,26L36.9,26z M36.9,26"/>
		<path fill="#222222" d="M40.6,28.4c-1.2-0.4-2.4-0.7-3.7-0.7c-1.3,0-2.6,0.2-3.7,0.7c-3.3,1-15.6,6.3-17.4,30
			c-0.2,2.2,1.5,4.1,3.7,4.3c0.1,0,0.2,0,0.3,0c2.1,0,3.8-1.6,4-3.7c0.4-5.4,1.4-9.6,2.7-12.7v12.2c0,0.8,0.1,1.6,0.3,2.4v33.5
			c0,2.6,2.1,4.6,4.6,4.6c2.6,0,4.6-2.1,4.6-4.6V69c0.3,0,0.7,0.1,1,0.1c0.4,0,0.7,0,1-0.1v25.4c0,2.6,2.1,4.6,4.6,4.6
			c2.6,0,4.6-2.1,4.6-4.6V60.9c0.2-0.8,0.3-1.6,0.3-2.4V46.2c1.3,3.2,2.3,7.3,2.7,12.7c0.2,2.1,1.9,3.7,4,3.7c0.1,0,0.2,0,0.3,0
			c2.2-0.2,3.8-2.1,3.7-4.3C56.3,34.7,43.9,29.4,40.6,28.4L40.6,28.4z M40.6,28.4"/>
	</g>
	<path fill="#41B070" d="M71.3,59.5c4.3,0,7.7-3.4,7.7-7.7c0-4.3-3.4-7.7-7.7-7.7c-4.3,0-7.7,3.4-7.7,7.7C63.6,56,67,59.5,71.3,59.5
		L71.3,59.5z M71.3,59.5"/>
	<path fill="#41B070" d="M84.3,79.4c-1.1-14.6-8.7-17.9-10.7-18.5c-0.7-0.3-1.5-0.4-2.3-0.4c-0.8,0-1.6,0.2-2.3,0.4
		c-2,0.6-9.6,3.9-10.7,18.5c-0.1,1.3,0.9,2.5,2.3,2.6c0.1,0,0.1,0,0.2,0c1.3,0,2.3-1,2.4-2.3c0.3-3.3,0.9-5.9,1.6-7.8v5.4
		c0,0.5,0.1,1,0.2,1.5v16.4c0,1.6,1.3,2.8,2.8,2.8c1.6,0,2.9-1.3,2.9-2.8V83.8c0.2,0,0.4,0,0.6,0c0.2,0,0.4,0,0.6,0v11.5
		c0,1.6,1.3,2.8,2.8,2.8c1.6,0,2.8-1.3,2.8-2.8V78.8c0.1-0.5,0.2-1,0.2-1.5v-5.4c0.8,2,1.4,4.5,1.6,7.8c0.1,1.3,1.2,2.3,2.4,2.3
		c0.1,0,0.1,0,0.2,0C83.4,81.9,84.4,80.7,84.3,79.4L84.3,79.4z M84.3,79.4"/>
</g>
</svg>
