<?xml version="1.0" encoding="utf-8"?>
<!-- Generator: Adobe Illustrator 18.1.1, SVG Export Plug-In . SVG Version: 6.00 Build 0)  -->
<svg version="1.1" id="Capa_1" xmlns="http://www.w3.org/2000/svg" xmlns:xlink="http://www.w3.org/1999/xlink" x="0px" y="0px"
	 viewBox="0 0 100 100" enable-background="new 0 0 100 100" xml:space="preserve">
<g>
	<g>
		<path fill="#222222" d="M78.6,18.8c-4.4-4.9-10.4-7.6-16.9-7.6c-5.1,0-10.6,3-14.6,5.3c-1.5,0.8-3.5,1.9-4.1,2
			c-0.6-0.1-2.6-1.2-4-2c-4-2.2-9.5-5.3-14.7-5.3c-6.5,0-12.5,2.7-16.9,7.6C3.3,23.5,1,29.6,1,36c0,9.2,3.3,22.3,8.9,35.1
			c2.5,5.7,5.1,10.6,7.6,14.2c3,4.3,5.5,6.4,7.8,6.4c1,0,2.9-0.4,3.9-3.3c1-2.8,1.9-6,2.9-9.4c2.5-9,5.7-20.2,10.8-20.2h0.3
			c2.3,0,4.3,1.9,6.2,5.9c1.9,4,3.3,9.2,4.7,14.3c0.9,3.4,1.8,6.6,2.8,9.3c1,2.9,2.8,3.3,3.9,3.3c2.3,0,4.8-2.1,7.8-6.5
			c2.5-3.6,5.1-8.6,7.6-14.3C81.7,58,85.1,45,85.1,36C85.1,29.6,82.8,23.5,78.6,18.8 M60.2,25.4c-0.1,0-5.3-0.3-10.1-1.5
			c-2.2-0.6-4.7-1.7-4.7-2.1c0-0.3,2.8-2,3.5-2.3c3.7-2,8.8-4.8,13-4.8c12.5,0,19.9,10.9,19.9,21.3c0,8.4-3.3,21.2-8.6,33.4
			c-2.4,5.4-5,10.3-7.3,13.7c-2.7,3.9-4.4,5.1-5,5c-0.3-0.1-0.4-0.3-0.6-1c-0.9-2.6-1.8-5.7-2.7-9.1c-1.4-5.2-2.9-10.7-4.9-14.9
			c-2.5-5.3-5.6-7.9-9.3-7.9h-0.3c-3.6,0-6.6,2.6-9.1,7.8c-2,4.2-3.6,9.6-5,14.9c-0.9,3.3-1.8,6.5-2.8,9.2c-0.2,0.6-0.3,1-0.7,1
			c-0.3,0-1.6-0.1-5-4.9c-2.3-3.4-4.9-8.2-7.3-13.6C7.7,57.6,4.4,44.7,4.4,36c0-10.5,7.4-21.3,19.9-21.3c3.2,0,7.5,1.5,11.4,3.9
			c0.6,0.4,1.4,1,2.1,1.6c0.3,0.2,0.6,0.5,0.9,0.7c0.9,0.7,2.1,1.6,3.6,2.4c0.6,0.4,1.4,0.8,2.2,1.2c3.1,1.3,6.4,2,9.8,2
			c3.5,0,5.8-0.6,5.8-0.6c0,0,0.5-0.1,0.5-0.3C60.7,25.4,60.2,25.4,60.2,25.4L60.2,25.4z M60.2,25.4"/>
	</g>
	<path fill="#41B070" d="M98.2,9.2c-0.5-0.5-1.2-0.8-1.9-0.8c-0.7,0-1.4,0.3-1.9,0.8L57.8,45.7L40.5,28.5c-0.5-0.5-1.2-0.8-1.9-0.8
		c-0.7,0-1.4,0.3-1.9,0.8c-0.5,0.5-0.8,1.2-0.8,1.9c0,0.7,0.3,1.4,0.8,1.9l19,19l0,0c0,0,0.1,0.1,0.1,0.1c0.5,0.5,1.2,0.8,1.9,0.8
		c0.7,0,1.4-0.3,1.9-0.8l38.6-38.5c0.5-0.5,0.8-1.2,0.8-1.9C99,10.3,98.7,9.6,98.2,9.2z"/>
</g>
</svg>
