<?xml version="1.0" encoding="utf-8"?>
<!-- Generator: Adobe Illustrator 18.1.1, SVG Export Plug-In . SVG Version: 6.00 Build 0)  -->
<svg version="1.1" id="Capa_1" xmlns="http://www.w3.org/2000/svg" xmlns:xlink="http://www.w3.org/1999/xlink" x="0px" y="0px"
	 viewBox="0 0 100 100" enable-background="new 0 0 100 100" xml:space="preserve">
<g>
	<path fill="#212121" d="M31.6,19.4v-6.1c0-3.4,2.7-6.1,6.1-6.1h24.5c3.4,0,6.1,2.8,6.1,6.1v6.1h6.1v-6.1C74.5,6.5,69,1,62.2,1H37.8
		C31,1,25.5,6.5,25.5,13.2v6.1H31.6z"/>
	<g>
		<path fill="#212121" d="M86.7,25.5H13.2C6.5,25.5,1,31,1,37.8v49C1,93.5,6.5,99,13.2,99h73.5C93.5,99,99,93.5,99,86.7v-49
			C99,31,93.5,25.5,86.7,25.5z M92.9,86.7c0,3.4-2.7,6.1-6.1,6.1H13.2c-3.4,0-6.1-2.7-6.1-6.1v-49c0-3.4,2.7-6.1,6.1-6.1h73.5
			c3.4,0,6.1,2.7,6.1,6.1V86.7z"/>
		<polygon fill="#44AC70" points="56.1,43.9 43.9,43.9 43.9,56.1 31.6,56.1 31.6,68.4 43.9,68.4 43.9,80.6 56.1,80.6 56.1,68.4 
			68.4,68.4 68.4,56.1 56.1,56.1 		"/>
	</g>
	<path d="M68.4,56.1"/>
</g>
</svg>
