<?xml version="1.0" encoding="utf-8"?>
<!-- Generator: Adobe Illustrator 18.1.1, SVG Export Plug-In . SVG Version: 6.00 Build 0)  -->
<svg version="1.1" id="Capa_1" xmlns="http://www.w3.org/2000/svg" xmlns:xlink="http://www.w3.org/1999/xlink" x="0px" y="0px"
	 viewBox="0 0 50 50" enable-background="new 0 0 50 50" xml:space="preserve">
<g>
	<path d="M4,12.2H46c1.1,0,2-0.9,2-2c0-1.1-0.9-2-2-2H4c-1.1,0-2,0.9-2,2C2,11.3,2.9,12.2,4,12.2L4,12.2z M4,12.2"/>
	<path d="M4,27H46c1.1,0,2-0.9,2-2c0-1.1-0.9-2-2-2H4c-1.1,0-2,0.9-2,2C2,26.1,2.9,27,4,27L4,27z M4,27"/>
	<path d="M4,41.8H46c1.1,0,2-0.9,2-2c0-1.1-0.9-2-2-2H4c-1.1,0-2,0.9-2,2C2,40.9,2.9,41.8,4,41.8L4,41.8z M4,41.8"/>
</g>
</svg>
